0
SECTION
2
HEADER
9
$INSUNITS
70
4
9
$ACADVER
1
AC1014
9
$HANDSEED
5
FFFF
0
ENDSEC
0
SECTION
2
TABLES
0
TABLE
2
VPORT
5
8
100
AcDbSymbolTable
0
ENDTAB
0
TABLE
2
LTYPE
5
5
100
AcDbSymbolTable
0
LTYPE
5
14
100
AcDbSymbolTableRecord
100
AcDbLinetypeTableRecord
2
BYBLOCK
70
0
0
LTYPE
5
15
100
AcDbSymbolTableRecord
100
AcDbLinetypeTableRecord
2
BYLAYER
70
0
0
ENDTAB
0
TABLE
2
LAYER
5
2
100
AcDbSymbolTable
70
2
0
LAYER
5
50
100
AcDbSymbolTableRecord
100
AcDbLayerTableRecord
2
0
70
0
6
CONTINUOUS
0
ENDTAB
0
TABLE
2
STYLE
5
3
100
AcDbSymbolTable
70
1
0
STYLE
5
11
100
AcDbSymbolTableRecord
100
AcDbTextStyleTableRecord
2
STANDARD
70
0
0
ENDTAB
0
TABLE
2
VIEW
5
6
100
AcDbSymbolTable
70
0
0
ENDTAB
0
TABLE
2
UCS
5
7
100
AcDbSymbolTable
70
0
0
ENDTAB
0
TABLE
2
APPID
5
9
100
AcDbSymbolTable
70
2
0
APPID
5
12
100
AcDbSymbolTableRecord
100
AcDbRegAppTableRecord
2
ACAD
70
0
0
ENDTAB
0
TABLE
2
DIMSTYLE
5
A
100
AcDbSymbolTable
70
1
0
ENDTAB
0
TABLE
2
BLOCK_RECORD
5
1
100
AcDbSymbolTable
70
1
0
BLOCK_RECORD
5
1F
100
AcDbSymbolTableRecord
100
AcDbBlockTableRecord
2
*MODEL_SPACE
0
BLOCK_RECORD
5
1B
100
AcDbSymbolTableRecord
100
AcDbBlockTableRecord
2
*PAPER_SPACE
0
ENDTAB
0
ENDSEC
0
SECTION
2
BLOCKS
0
BLOCK
5
20
100
AcDbEntity
100
AcDbBlockBegin
2
*MODEL_SPACE
0
ENDBLK
5
21
100
AcDbEntity
100
AcDbBlockEnd
0
BLOCK
5
1C
100
AcDbEntity
100
AcDbBlockBegin
2
*PAPER_SPACE
0
ENDBLK
5
1D
100
AcDbEntity
100
AcDbBlockEnd
0
ENDSEC
0
SECTION
2
ENTITIES
0
LWPOLYLINE
5
100
100
AcDbEntity
8
0
100
AcDbPolyline
90
22
70
1
43
0.0
10
-23.25041074647563
20
-37.991820999192562
10
-49.00007452671445
20
-37.991820999192569
42
-0.41421055450563626
10
-56.999992370612134
20
-29.991820999614394
10
-56.999992370609576
20
-22.491702817695614
10
-57.041751997186836
20
-14.974579304259965
42
-0.41421232504937067
10
-56.025136995990898
20
-13.991479365086594
42
0.41666897135669434
10
-55.008380953000682
20
-12.999965064879229
10
-55.000000819563866
20
-12.000000178813936
42
0.41666897135669995
10
-55.999996595084596
20
-10.991584635789364
42
-0.41421232504904854
10
-56.999992370605312
20
-9.9915846357904634
42
0.41421356237307549
10
-58.999992370605312
20
-7.9915846357903275
10
-74.999992370605398
20
-7.9915846357893123
42
-0.41421356237310347
10
-77.999992370605398
20
-4.9915846357893701
10
-77.999992370605341
20
14.008415364214706
42
-0.41421356237309309
10
-74.999992370605327
20
17.008415364214706
10
-47.999805537836046
20
17.008415364213572
42
-0.41421558460241281
10
-39.999805538027047
20
9.0083601296707876
10
-39.999833156298237
20
5.008215327501178
42
0.41421245946570073
10
-36.999881170982178
20
2.0082106199521697
10
-23.249905407405191
20
2.0080799141677197
42
-0.41421546587390096
10
-16.249994622573684
20
-4.9920094458460795
10
-16.250410748595094
20
-30.992009442516895
42
-0.41420567755307858
0
CIRCLE
5
101
100
AcDbEntity
8
0
100
AcDbCircle
10
-35.939802628481047
20
-17.991757370554225
30
0
40
11.125000000000005
210
0
220
-0
230
1
0
CIRCLE
5
102
100
AcDbEntity
8
0
100
AcDbCircle
10
-48.940410746962115
20
-4.9918053807171034
30
0
40
1.5500000000000025
210
0
220
-0
230
1
0
LINE
5
103
100
AcDbEntity
8
0
100
AcDbLine
10
-46.799789255390316
20
11.60841536432061
30
0
11
-43.799789255390309
21
11.60841536432061
31
0
0
ARC
5
104
100
AcDbEntity
8
0
100
AcDbCircle
10
-46.799789255390102
20
10.6084153643205
30
0
40
1.0000000000001097
210
0
220
0
230
1
100
AcDbArc
50
90.000000000012221
51
180
0
LINE
5
105
100
AcDbEntity
8
0
100
AcDbLine
10
-47.799789255390209
20
10.6084153643205
30
0
11
-47.799789255390195
21
1.5084153643115239
31
0
0
ARC
5
106
100
AcDbEntity
8
0
100
AcDbCircle
10
-46.799789255390252
20
1.5084153643115235
30
0
40
0.99999999999994316
210
0
220
0
230
1
100
AcDbArc
50
180
51
269.99999999999636
0
LINE
5
107
100
AcDbEntity
8
0
100
AcDbLine
10
-46.799789255390316
20
0.50841536431158019
30
0
11
-43.799789255390309
21
0.50841536431157397
31
0
0
CIRCLE
5
108
100
AcDbEntity
8
0
100
AcDbCircle
10
-67.961852911741289
20
12.770396717904502
30
0
40
1.5500000000000005
210
0
220
-0
230
1
0
CIRCLE
5
109
100
AcDbEntity
8
0
100
AcDbCircle
10
-48.940410746962115
20
-30.991805380717107
30
0
40
1.5499999999999989
210
0
220
-0
230
1
0
CIRCLE
5
110
100
AcDbEntity
8
0
100
AcDbCircle
10
-22.94041074901579
20
-30.992368287139271
30
0
40
1.55
210
0
220
-0
230
1
0
CIRCLE
5
111
100
AcDbEntity
8
0
100
AcDbCircle
10
-22.939906593038732
20
-4.9923767069491909
30
0
40
1.55
210
0
220
-0
230
1
0
LINE
5
112
100
AcDbEntity
8
0
100
AcDbLine
10
-42.799801197550202
20
1.5084153643114506
30
0
11
-42.799801197550245
21
10.608415364320496
31
0
0
ARC
5
113
100
AcDbEntity
8
0
100
AcDbCircle
10
-43.799801197550245
20
10.608415364320496
30
0
40
0.99999999999999645
210
0
220
-0
230
1
100
AcDbArc
50
0
51
90.000000000002842
0
ARC
5
114
100
AcDbEntity
8
0
100
AcDbCircle
10
-43.799801197550252
20
1.5084153643114528
30
0
40
1.0000000000000526
210
0
220
0
230
1
100
AcDbArc
50
269.99999999999756
51
360
0
LWPOLYLINE
5
115
100
AcDbEntity
8
0
100
AcDbPolyline
90
4
70
1
43
0.0
10
-64.96957259466285
20
4.0031031009772597
10
-70.96957259466285
20
4.0031031009772597
10
-70.96957259466285
20
7.0031031009772606
10
-64.96957259466285
20
7.0031031009772606
0
CIRCLE
5
116
100
AcDbEntity
8
0
100
AcDbCircle
10
-67.977292277584397
20
-1.7641905159499813
30
0
40
2.5499999999999994
210
0
220
0
230
1
0
ENDSEC
0
SECTION
2
OBJECTS
0
DICTIONARY
5
C
100
AcDbDictionary
3
ACAD_GROUP
350
D
3
ACAD_MLINESTYLE
350
17
0
DICTIONARY
5
D
100
AcDbDictionary
0
DICTIONARY
5
1A
330
C
100
AcDbDictionary
0
DICTIONARY
5
17
100
AcDbDictionary
0
ENDSEC
0
EOF
