0
SECTION
2
HEADER
9
$INSUNITS
70
4
9
$ACADVER
1
AC1014
9
$HANDSEED
5
FFFF
0
ENDSEC
0
SECTION
2
TABLES
0
TABLE
2
VPORT
5
8
100
AcDbSymbolTable
0
ENDTAB
0
TABLE
2
LTYPE
5
5
100
AcDbSymbolTable
0
LTYPE
5
14
100
AcDbSymbolTableRecord
100
AcDbLinetypeTableRecord
2
BYBLOCK
70
0
0
LTYPE
5
15
100
AcDbSymbolTableRecord
100
AcDbLinetypeTableRecord
2
BYLAYER
70
0
0
ENDTAB
0
TABLE
2
LAYER
5
2
100
AcDbSymbolTable
70
2
0
LAYER
5
50
100
AcDbSymbolTableRecord
100
AcDbLayerTableRecord
2
0
70
0
6
CONTINUOUS
0
ENDTAB
0
TABLE
2
STYLE
5
3
100
AcDbSymbolTable
70
1
0
STYLE
5
11
100
AcDbSymbolTableRecord
100
AcDbTextStyleTableRecord
2
STANDARD
70
0
0
ENDTAB
0
TABLE
2
VIEW
5
6
100
AcDbSymbolTable
70
0
0
ENDTAB
0
TABLE
2
UCS
5
7
100
AcDbSymbolTable
70
0
0
ENDTAB
0
TABLE
2
APPID
5
9
100
AcDbSymbolTable
70
2
0
APPID
5
12
100
AcDbSymbolTableRecord
100
AcDbRegAppTableRecord
2
ACAD
70
0
0
ENDTAB
0
TABLE
2
DIMSTYLE
5
A
100
AcDbSymbolTable
70
1
0
ENDTAB
0
TABLE
2
BLOCK_RECORD
5
1
100
AcDbSymbolTable
70
1
0
BLOCK_RECORD
5
1F
100
AcDbSymbolTableRecord
100
AcDbBlockTableRecord
2
*MODEL_SPACE
0
BLOCK_RECORD
5
1B
100
AcDbSymbolTableRecord
100
AcDbBlockTableRecord
2
*PAPER_SPACE
0
ENDTAB
0
ENDSEC
0
SECTION
2
BLOCKS
0
BLOCK
5
20
100
AcDbEntity
100
AcDbBlockBegin
2
*MODEL_SPACE
0
ENDBLK
5
21
100
AcDbEntity
100
AcDbBlockEnd
0
BLOCK
5
1C
100
AcDbEntity
100
AcDbBlockBegin
2
*PAPER_SPACE
0
ENDBLK
5
1D
100
AcDbEntity
100
AcDbBlockEnd
0
ENDSEC
0
SECTION
2
ENTITIES
0
LINE
5
100
100
AcDbEntity
8
0
100
AcDbLine
10
-74.999992370605398
20
-7.991584635789291
30
0
11
-58.999992370605305
21
-7.9915846357903311
31
0
0
ARC
5
101
100
AcDbEntity
8
0
100
AcDbCircle
10
-74.999992370605483
20
-4.9915846357893852
30
0
40
2.9999999999999094
210
0
220
0
230
1
100
AcDbArc
50
180
51
270.00000000000159
0
LINE
5
102
100
AcDbEntity
8
0
100
AcDbLine
10
-77.999992370605298
20
14.008415364214702
30
0
11
-77.999992370605398
21
-4.9915846357893692
31
0
0
ARC
5
103
100
AcDbEntity
8
0
100
AcDbCircle
10
-74.999992370605298
20
14.008415364214686
30
0
40
3.000000000000016
210
0
220
0
230
1
100
AcDbArc
50
90
51
180
0
LINE
5
104
100
AcDbEntity
8
0
100
AcDbLine
10
-74.999992370605298
20
17.008415364214702
30
0
11
-47.999805537836039
21
17.008415364213565
31
0
0
ARC
5
105
100
AcDbEntity
8
0
100
AcDbCircle
10
-47.999805537836295
20
9.0084153642136471
30
0
40
7.9999999999999227
210
-0
220
0
230
1
100
AcDbArc
50
-0.00039558752214647783
51
89.999999999998181
0
LINE
5
106
100
AcDbEntity
8
0
100
AcDbLine
10
-39.999833156298237
20
5.0082153274922812
30
0
11
-39.999805538027047
21
9.0083601296707876
31
0
0
ARC
5
107
100
AcDbEntity
8
0
100
AcDbCircle
10
-36.999849161501928
20
5.0081946146492147
30
0
40
2.9999839948678151
210
0
220
0
230
1
100
AcDbArc
50
179.9996044115565
51
269.99938866069755
0
ARC
5
108
100
AcDbEntity
8
0
100
AcDbCircle
10
-48.999992370612105
20
-29.99182099961439
30
0
40
8.0000000000000249
210
0
220
0
230
1
100
AcDbArc
50
180
51
269.99941160025935
0
LINE
5
109
100
AcDbEntity
8
0
100
AcDbLine
10
-56.999992370612134
20
-29.991820999601792
30
0
11
-56.999992370609576
21
-22.491702817695614
31
0
0
ARC
5
110
100
AcDbEntity
8
0
100
AcDbCircle
10
-58.99999237060544
20
-9.9915846357904599
30
0
40
2.000000000000135
210
0
220
-0
230
1
100
AcDbArc
50
0
51
89.999999999996135
0
CIRCLE
5
111
100
AcDbEntity
8
0
100
AcDbCircle
10
-67.977292277584397
20
-1.7641905159499811
30
0
40
2.7000000000000002
210
0
220
-0
230
1
0
CIRCLE
5
112
100
AcDbEntity
8
0
100
AcDbCircle
10
-67.961852911741303
20
12.770396717904502
30
0
40
1.5500000000000003
210
0
220
-0
230
1
0
LINE
5
113
100
AcDbEntity
8
0
100
AcDbLine
10
-42.799801197550202
20
1.5084153643114506
30
0
11
-42.799801197550238
21
10.6084153643205
31
0
0
ARC
5
114
100
AcDbEntity
8
0
100
AcDbCircle
10
-43.799801197550238
20
10.608415364320496
30
0
40
0.99999999999999645
210
0
220
-0
230
1
100
AcDbArc
50
0
51
90.000000000002842
0
LINE
5
115
100
AcDbEntity
8
0
100
AcDbLine
10
-46.799789255390309
20
11.60841536432061
30
0
11
-43.799789255390309
21
11.60841536432061
31
0
0
ARC
5
116
100
AcDbEntity
8
0
100
AcDbCircle
10
-46.799789255390102
20
10.6084153643205
30
0
40
1.0000000000001097
210
0
220
0
230
1
100
AcDbArc
50
90.000000000011795
51
180
0
LINE
5
117
100
AcDbEntity
8
0
100
AcDbLine
10
-47.799789255390209
20
10.6084153643205
30
0
11
-47.799789255390202
21
1.5084153643114506
31
0
0
ARC
5
118
100
AcDbEntity
8
0
100
AcDbCircle
10
-46.799789255390259
20
1.508415364311523
30
0
40
0.99999999999994316
210
0
220
0
230
1
100
AcDbArc
50
180
51
269.99999999999716
0
LINE
5
119
100
AcDbEntity
8
0
100
AcDbLine
10
-46.799789255390309
20
0.50841536431157985
30
0
11
-43.799789255390309
21
0.50841536431157397
31
0
0
ARC
5
120
100
AcDbEntity
8
0
100
AcDbCircle
10
-43.799801197550252
20
1.5084153643114528
30
0
40
1.0000000000000526
210
0
220
0
230
1
100
AcDbArc
50
269.99999999999756
51
360
0
CIRCLE
5
121
100
AcDbEntity
8
0
100
AcDbCircle
10
-35.939802628481054
20
-17.991757370554229
30
0
40
11.125000000000004
210
0
220
0
230
1
0
LINE
5
122
100
AcDbEntity
8
0
100
AcDbLine
10
-16.250410748595097
20
-30.992009442516064
30
0
11
-16.249994622573684
21
-4.9920094458460795
31
0
0
ARC
5
123
100
AcDbEntity
8
0
100
AcDbCircle
10
-23.25041074647563
20
-30.991820998775523
30
0
40
7.0000000004170371
210
0
220
0
230
1
100
AcDbArc
50
270
51
359.99845756699187
0
ARC
5
124
100
AcDbEntity
8
0
100
AcDbCircle
10
-23.249971948441246
20
-4.9918974122801192
30
0
40
6.9999773267641014
210
0
220
0
230
1
100
AcDbArc
50
-0.00091700973309525831
51
89.999455352445779
0
CIRCLE
5
125
100
AcDbEntity
8
0
100
AcDbCircle
10
-48.940410746962115
20
-4.9918053807171026
30
0
40
1.5500000000000025
210
0
220
0
230
1
0
CIRCLE
5
126
100
AcDbEntity
8
0
100
AcDbCircle
10
-48.940410746962115
20
-30.991805380717103
30
0
40
1.5499999999999992
210
0
220
0
230
1
0
CIRCLE
5
127
100
AcDbEntity
8
0
100
AcDbCircle
10
-22.939906593038728
20
-4.99237670694919
30
0
40
1.5499999999999998
210
0
220
0
230
1
0
CIRCLE
5
128
100
AcDbEntity
8
0
100
AcDbCircle
10
-22.94041074901579
20
-30.992368287139271
30
0
40
1.5499999999999998
210
0
220
0
230
1
0
LINE
5
129
100
AcDbEntity
8
0
100
AcDbLine
10
-36.999881170982178
20
2.0082106199521683
30
0
11
-23.249905407405187
21
2.0080799141526438
31
0
0
LINE
5
130
100
AcDbEntity
8
0
100
AcDbLine
10
-23.25041074647563
20
-37.991820999192562
30
0
11
-49.000074526714442
21
-37.991820999192562
31
0
0
ARC
5
131
100
AcDbEntity
8
0
100
AcDbCircle
10
-55.999992370595841
20
-9.9915846357888256
30
0
40
1.0000000000094644
210
0
220
0
230
1
100
AcDbArc
50
180
51
269.9997579546241
0
ARC
5
132
100
AcDbEntity
8
0
100
AcDbCircle
10
-56.000000819721684
20
-11.991619751106006
30
0
40
1.0000351153255576
210
0
220
0
230
1
100
AcDbArc
50
-0.48015189770624839
51
89.999757954623973
0
ARC
5
133
100
AcDbEntity
8
0
100
AcDbCircle
10
-56.041892450450206
20
-14.991338982615376
30
0
40
1.0000000000094704
210
0
220
-0
230
1
100
AcDbArc
50
89.039938249962901
51
179.03969620455618
0
ARC
5
134
100
AcDbEntity
8
0
100
AcDbCircle
10
-56.0083809531585
20
-12.991584637171298
30
0
40
1.0000351153255591
210
0
220
0
230
1
100
AcDbArc
50
269.03993824996309
51
359.51984810229374
0
LINE
5
135
100
AcDbEntity
8
0
100
AcDbLine
10
-55.008380953000682
20
-12.999965064879229
30
0
11
-55.000000819563866
21
-12.000000178813934
31
0
0
LINE
5
136
100
AcDbEntity
8
0
100
AcDbLine
10
-56.999992370609576
20
-22.491702817695614
30
0
11
-57.041751997186829
21
-14.974579304259962
31
0
0
ENDSEC
0
SECTION
2
OBJECTS
0
DICTIONARY
5
C
100
AcDbDictionary
3
ACAD_GROUP
350
D
3
ACAD_MLINESTYLE
350
17
0
DICTIONARY
5
D
100
AcDbDictionary
0
DICTIONARY
5
1A
330
C
100
AcDbDictionary
0
DICTIONARY
5
17
100
AcDbDictionary
0
ENDSEC
0
EOF
