0
SECTION
2
HEADER
9
$INSUNITS
70
4
9
$ACADVER
1
AC1014
9
$HANDSEED
5
FFFF
0
ENDSEC
0
SECTION
2
TABLES
0
TABLE
2
VPORT
5
8
100
AcDbSymbolTable
0
ENDTAB
0
TABLE
2
LTYPE
5
5
100
AcDbSymbolTable
0
LTYPE
5
14
100
AcDbSymbolTableRecord
100
AcDbLinetypeTableRecord
2
BYBLOCK
70
0
0
LTYPE
5
15
100
AcDbSymbolTableRecord
100
AcDbLinetypeTableRecord
2
BYLAYER
70
0
0
ENDTAB
0
TABLE
2
LAYER
5
2
100
AcDbSymbolTable
70
2
0
LAYER
5
50
100
AcDbSymbolTableRecord
100
AcDbLayerTableRecord
2
0
70
0
6
CONTINUOUS
0
ENDTAB
0
TABLE
2
STYLE
5
3
100
AcDbSymbolTable
70
1
0
STYLE
5
11
100
AcDbSymbolTableRecord
100
AcDbTextStyleTableRecord
2
STANDARD
70
0
0
ENDTAB
0
TABLE
2
VIEW
5
6
100
AcDbSymbolTable
70
0
0
ENDTAB
0
TABLE
2
UCS
5
7
100
AcDbSymbolTable
70
0
0
ENDTAB
0
TABLE
2
APPID
5
9
100
AcDbSymbolTable
70
2
0
APPID
5
12
100
AcDbSymbolTableRecord
100
AcDbRegAppTableRecord
2
ACAD
70
0
0
ENDTAB
0
TABLE
2
DIMSTYLE
5
A
100
AcDbSymbolTable
70
1
0
ENDTAB
0
TABLE
2
BLOCK_RECORD
5
1
100
AcDbSymbolTable
70
1
0
BLOCK_RECORD
5
1F
100
AcDbSymbolTableRecord
100
AcDbBlockTableRecord
2
*MODEL_SPACE
0
BLOCK_RECORD
5
1B
100
AcDbSymbolTableRecord
100
AcDbBlockTableRecord
2
*PAPER_SPACE
0
ENDTAB
0
ENDSEC
0
SECTION
2
BLOCKS
0
BLOCK
5
20
100
AcDbEntity
100
AcDbBlockBegin
2
*MODEL_SPACE
0
ENDBLK
5
21
100
AcDbEntity
100
AcDbBlockEnd
0
BLOCK
5
1C
100
AcDbEntity
100
AcDbBlockBegin
2
*PAPER_SPACE
0
ENDBLK
5
1D
100
AcDbEntity
100
AcDbBlockEnd
0
ENDSEC
0
SECTION
2
ENTITIES
0
LINE
5
100
100
AcDbEntity
8
0
100
AcDbLine
10
-77.999992370605725
20
339.00040473135402
30
0
11
-77.999992370008968
21
323.40040443333004
31
0
0
ARC
5
101
100
AcDbEntity
8
0
100
AcDbCircle
10
-74.999992370605753
20
339.00040473135402
30
0
40
2.9999999999999716
210
0
220
-0
230
1
100
AcDbArc
50
89.99999999999919
51
180
0
LINE
5
102
100
AcDbEntity
8
0
100
AcDbLine
10
-59.673259369056098
20
342.00040473135402
30
0
11
-74.99999237060571
21
342.00040473135402
31
0
0
ARC
5
103
100
AcDbEntity
8
0
100
AcDbCircle
10
-59.673259369056083
20
345.00040473135402
30
0
40
2.9999999999999716
210
0
220
0
230
1
100
AcDbArc
50
-90.000000000000256
51
0
0
ARC
5
104
100
AcDbEntity
8
0
100
AcDbCircle
10
-49.173259369054961
20
362.52983878463397
30
0
40
7.5000000000000711
210
0
220
0
230
1
100
AcDbArc
50
90.000000000000327
51
180
0
LINE
5
105
100
AcDbEntity
8
0
100
AcDbLine
10
33.00000762939451
20
370.02983878463402
30
0
11
-49.173259369055003
21
370.02983878463402
31
0
0
ARC
5
106
100
AcDbEntity
8
0
100
AcDbCircle
10
33.000007629394553
20
365.02983878463408
30
0
40
4.9999999999999512
210
-0
220
0
230
1
100
AcDbArc
50
0
51
90.000000000000497
0
LINE
5
107
100
AcDbEntity
8
0
100
AcDbLine
10
38.00000762939446
20
351.02941453622202
30
0
11
38.000007629394503
21
365.02983878463402
31
0
0
ARC
5
108
100
AcDbEntity
8
0
100
AcDbCircle
10
35.000007629394631
20
351.02941453622185
30
0
40
2.9999999999998295
210
0
220
0
230
1
100
AcDbArc
50
-90.000000000002444
51
0
0
ARC
5
109
100
AcDbEntity
8
0
100
AcDbCircle
10
24.938888624275307
20
347.02941453621906
30
0
40
1.0000000000040643
210
0
220
0
230
1
100
AcDbArc
50
90.000000000430305
51
180
0
LINE
5
110
100
AcDbEntity
8
0
100
AcDbLine
10
21.398509855600484
20
340.02941453622208
30
0
11
23.938509855600483
21
340.02941453622208
31
0
0
LINE
5
111
100
AcDbEntity
8
0
100
AcDbLine
10
23.938509855600483
20
340.02941453622208
30
0
11
23.938509855600483
21
337.69805488409867
31
0
0
LINE
5
112
100
AcDbEntity
8
0
100
AcDbLine
10
23.320603532343902
20
336.77393128728278
30
0
11
1.144504787360443
21
327.65364834376749
31
0
0
ARC
5
113
100
AcDbEntity
8
0
100
AcDbCircle
10
22.938509855600525
20
337.69805488409901
30
0
40
0.99999999999993272
210
-0
220
0
230
1
100
AcDbArc
50
292.46343024924244
51
360
0
ARC
5
114
100
AcDbEntity
8
0
100
AcDbCircle
10
-5.6435383246114936
20
341.02983878462118
30
0
40
14.999999999999218
210
0
220
0
230
1
100
AcDbArc
50
270
51
296.90652119289359
0
LINE
5
115
100
AcDbEntity
8
0
100
AcDbLine
10
-29.026114145178191
20
326.02983878462197
30
0
11
-5.6435383246114954
21
326.02983878462197
31
0
0
ARC
5
116
100
AcDbEntity
8
0
100
AcDbCircle
10
-29.026114145178347
20
306.02983878462237
30
0
40
19.999999999999574
210
0
220
-0
230
1
100
AcDbArc
50
89.999999999999545
51
126.61351566313409
0
ARC
5
117
100
AcDbEntity
8
0
100
AcDbCircle
10
-43.101490144402455
20
324.97301144604489
30
0
40
3.6000000000005428
210
-0
220
0
230
1
100
AcDbArc
50
270.57160736471576
51
306.61351566313118
0
ARC
5
118
100
AcDbEntity
8
0
100
AcDbCircle
10
-60.976395737687454
20
334.97434182310587
30
0
40
17.973935271998165
210
-0
220
0
230
1
100
AcDbArc
50
270.00000743491097
51
291.29812039992618
0
LINE
5
119
100
AcDbEntity
8
0
100
AcDbLine
10
-60.976393405323542
20
317.00040655110786
30
0
11
-74.99999237060571
21
317.00040473135402
31
0
0
ARC
5
120
100
AcDbEntity
8
0
100
AcDbCircle
10
-74.999992370325899
20
320.00040473135408
30
0
40
3.0000000000000338
210
0
220
0
230
1
100
AcDbArc
50
180
51
269.99999999465604
0
CIRCLE
5
121
100
AcDbEntity
8
0
100
AcDbCircle
10
-67.999992370605696
20
321.25040459634408
30
0
40
1.6000000000000068
210
0
220
-0
230
1
0
CIRCLE
5
122
100
AcDbEntity
8
0
100
AcDbCircle
10
-67.999992370605497
20
335.75040459634403
30
0
40
2.5499999999999989
210
0
220
-0
230
1
0
LWPOLYLINE
5
123
100
AcDbEntity
8
0
100
AcDbPolyline
90
4
70
1
43
0.0
10
-36.601490144398447
20
360.02941453622998
42
0.99999999999999989
10
-36.601490144398447
20
357.02941453622998
10
-28.601490144398447
20
357.02941453622998
42
0.99999999999999989
10
-28.601490144398447
20
360.02941453622998
0
LWPOLYLINE
5
124
100
AcDbEntity
8
0
100
AcDbPolyline
90
4
70
1
43
0.0
10
-10.601490144399545
20
360.02941453622901
42
0.99999999999999989
10
-10.601490144399545
20
357.02941453622907
10
-2.6014901443995453
20
357.02941453622907
42
0.99999999999999989
10
-2.6014901443995466
20
360.02941453622901
0
LWPOLYLINE
5
125
100
AcDbEntity
8
0
100
AcDbPolyline
90
4
70
1
43
0.0
10
-23.601490144399513
20
356.52941453622992
10
-15.601490144399509
20
356.52941453622992
42
-0.99999999999999989
10
-15.601490144399515
20
334.52941453622992
10
-23.601490144399513
20
334.52941453622992
42
-0.99999999999999989
0
LWPOLYLINE
5
126
100
AcDbEntity
8
0
100
AcDbPolyline
90
8
70
1
43
0.0
10
-41.101490144402703
20
330.97301144605404
10
-41.101490144402668
20
324.97301144604501
42
-0.41421356237307549
10
-43.101490144402703
20
322.97301144604495
10
-45.861490144402701
20
322.97301144604501
42
-0.41421356237307549
10
-47.861490144402694
20
324.97301144604501
10
-47.861490144402687
20
330.97301144605404
42
-0.41421356237309892
10
-45.861490144402701
20
332.97301144605399
10
-43.101490144402703
20
332.97301144605399
42
-0.41421356237307549
0
LWPOLYLINE
5
127
100
AcDbEntity
8
0
100
AcDbPolyline
90
4
70
1
43
0.0
10
-36.601490144399513
20
331.02941453622998
10
-28.601490144399513
20
331.02941453622998
42
0.99999999999999989
10
-28.601490144399513
20
334.02941453622992
10
-36.601490144399513
20
334.02941453622992
42
0.99999999999999989
0
LWPOLYLINE
5
128
100
AcDbEntity
8
0
100
AcDbPolyline
90
4
70
1
43
0.0
10
-10.601490144399509
20
334.02941453622992
42
0.99999999999999989
10
-10.601490144399509
20
331.02941453622998
10
-2.6014901443995098
20
331.02941453622998
42
0.99999999999999989
10
-2.6014901443995098
20
334.02941453622992
0
CIRCLE
5
129
100
AcDbEntity
8
0
100
AcDbCircle
10
7.2837098079205358
20
333.31417326469301
30
0
40
1.3000000000000163
210
0
220
-0
230
1
0
CIRCLE
5
130
100
AcDbEntity
8
0
100
AcDbCircle
10
12.249621459813699
20
358.02941453622202
30
0
40
2.5500000000000012
210
0
220
-0
230
1
0
CIRCLE
5
131
100
AcDbEntity
8
0
100
AcDbCircle
10
28.2496214598136
20
358.02941453622202
30
0
40
2.5499999999999989
210
0
220
-0
230
1
0
LINE
5
132
100
AcDbEntity
8
0
100
AcDbLine
10
-77.999992370325927
20
320.00040473163375
30
0
11
-77.999992370008968
21
323.40040443333004
31
0
0
ARC
5
133
100
AcDbEntity
8
0
100
AcDbCircle
10
-33.411349842476668
20
264.2668014157951
30
0
40
57.916696729959291
210
0
220
0
230
1
100
AcDbArc
50
99.595515968676494
51
111.29812039992612
0
LINE
5
134
100
AcDbEntity
8
0
100
AcDbLine
10
21.398509855600484
20
340.02941453622208
30
0
11
21.398509855600484
21
346.02941453622208
31
0
0
LINE
5
135
100
AcDbEntity
8
0
100
AcDbLine
10
21.398509855600484
20
346.02941453622208
30
0
11
23.938888624271243
21
346.02941453622208
31
0
0
LINE
5
136
100
AcDbEntity
8
0
100
AcDbLine
10
23.938888624271243
20
346.02941453622208
30
0
11
23.938888624271243
21
347.02941453621912
31
0
0
LINE
5
137
100
AcDbEntity
8
0
100
AcDbLine
10
35.000007629394503
20
348.02941453622202
30
0
11
24.938888624267797
21
348.0294145362231
31
0
0
CIRCLE
5
138
100
AcDbEntity
8
0
100
AcDbCircle
10
-49.173259369054961
20
362.52983878463397
30
0
40
1.5249999999999999
210
0
220
0
230
1
0
CIRCLE
5
139
100
AcDbEntity
8
0
100
AcDbCircle
10
-49.173259369057263
20
340.52983878463397
30
0
40
1.5249999999999999
210
0
220
0
230
1
0
ARC
5
140
100
AcDbEntity
8
0
100
AcDbCircle
10
-55.673259369057071
20
354.76512175799553
30
0
40
1.0000000000015774
210
0
220
0
230
1
100
AcDbArc
50
269.99999999999591
51
360
0
LINE
5
141
100
AcDbEntity
8
0
100
AcDbLine
10
-54.673259369055501
20
354.76512175799422
30
0
11
-54.67325936905543
21
355.76512175799292
31
0
0
ARC
5
142
100
AcDbEntity
8
0
100
AcDbCircle
10
-55.673259369056403
20
355.76512175799303
30
0
40
1.0000000000009734
210
0
220
0
230
1
100
AcDbArc
50
0
51
90.000000000347256
0
LINE
5
143
100
AcDbEntity
8
0
100
AcDbLine
10
-56.673259369056112
20
345.00040473135408
30
0
11
-56.673259369055629
21
352.76512175799496
31
0
0
ARC
5
144
100
AcDbEntity
8
0
100
AcDbCircle
10
-55.67325936905651
20
352.7651217579949
30
0
40
0.99999999999909051
210
0
220
0
230
1
100
AcDbArc
50
90.000000000036223
51
180
0
LINE
5
145
100
AcDbEntity
8
0
100
AcDbLine
10
-56.673259369055032
20
362.52983878463402
30
0
11
-56.673259369055302
21
357.76512175799303
31
0
0
ARC
5
146
100
AcDbEntity
8
0
100
AcDbCircle
10
-55.673259369068518
20
357.76512175798075
30
0
40
0.99999999998678035
210
0
220
0
230
1
100
AcDbArc
50
180
51
270.00000000034686
0
CIRCLE
5
147
100
AcDbEntity
8
0
100
AcDbCircle
10
-53.905492416089693
20
350.99735480502773
30
0
40
1.3000000000000025
210
0
220
0
230
1
0
CIRCLE
5
148
100
AcDbEntity
8
0
100
AcDbCircle
10
20.249621459813653
20
358.02941453622202
30
0
40
1.3000000000000127
210
0
220
0
230
1
0
ENDSEC
0
SECTION
2
OBJECTS
0
DICTIONARY
5
C
100
AcDbDictionary
3
ACAD_GROUP
350
D
3
ACAD_MLINESTYLE
350
17
0
DICTIONARY
5
D
100
AcDbDictionary
0
DICTIONARY
5
1A
330
C
100
AcDbDictionary
0
DICTIONARY
5
17
100
AcDbDictionary
0
ENDSEC
0
EOF
