0
SECTION
2
HEADER
9
$INSUNITS
70
4
9
$ACADVER
1
AC1014
9
$HANDSEED
5
FFFF
0
ENDSEC
0
SECTION
2
TABLES
0
TABLE
2
VPORT
5
8
100
AcDbSymbolTable
0
ENDTAB
0
TABLE
2
LTYPE
5
5
100
AcDbSymbolTable
0
LTYPE
5
14
100
AcDbSymbolTableRecord
100
AcDbLinetypeTableRecord
2
BYBLOCK
70
0
0
LTYPE
5
15
100
AcDbSymbolTableRecord
100
AcDbLinetypeTableRecord
2
BYLAYER
70
0
0
ENDTAB
0
TABLE
2
LAYER
5
2
100
AcDbSymbolTable
70
2
0
LAYER
5
50
100
AcDbSymbolTableRecord
100
AcDbLayerTableRecord
2
0
70
0
6
CONTINUOUS
0
ENDTAB
0
TABLE
2
STYLE
5
3
100
AcDbSymbolTable
70
1
0
STYLE
5
11
100
AcDbSymbolTableRecord
100
AcDbTextStyleTableRecord
2
STANDARD
70
0
0
ENDTAB
0
TABLE
2
VIEW
5
6
100
AcDbSymbolTable
70
0
0
ENDTAB
0
TABLE
2
UCS
5
7
100
AcDbSymbolTable
70
0
0
ENDTAB
0
TABLE
2
APPID
5
9
100
AcDbSymbolTable
70
2
0
APPID
5
12
100
AcDbSymbolTableRecord
100
AcDbRegAppTableRecord
2
ACAD
70
0
0
ENDTAB
0
TABLE
2
DIMSTYLE
5
A
100
AcDbSymbolTable
70
1
0
ENDTAB
0
TABLE
2
BLOCK_RECORD
5
1
100
AcDbSymbolTable
70
1
0
BLOCK_RECORD
5
1F
100
AcDbSymbolTableRecord
100
AcDbBlockTableRecord
2
*MODEL_SPACE
0
BLOCK_RECORD
5
1B
100
AcDbSymbolTableRecord
100
AcDbBlockTableRecord
2
*PAPER_SPACE
0
ENDTAB
0
ENDSEC
0
SECTION
2
BLOCKS
0
BLOCK
5
20
100
AcDbEntity
100
AcDbBlockBegin
2
*MODEL_SPACE
0
ENDBLK
5
21
100
AcDbEntity
100
AcDbBlockEnd
0
BLOCK
5
1C
100
AcDbEntity
100
AcDbBlockBegin
2
*PAPER_SPACE
0
ENDBLK
5
1D
100
AcDbEntity
100
AcDbBlockEnd
0
ENDSEC
0
SECTION
2
ENTITIES
0
LWPOLYLINE
5
100
100
AcDbEntity
8
0
100
AcDbPolyline
90
34
70
1
43
0.0
10
1.1445047873604697
20
327.65364834376749
10
23.978865534761574
20
337.04465229110099
42
0.30403430423014244
10
24.598509855600135
20
337.96949257857204
10
24.59850985560049
20
340.02941453622208
10
21.398509855600484
20
340.02941453622208
10
21.398509855600484
20
346.02941453622208
10
24.59850985560049
20
346.02941453622117
10
24.598509855600593
20
347.02941453622282
42
-0.41421356237312756
10
25.598509855600717
20
348.02941453622282
10
35.000007629394496
20
348.02941453622202
42
0.41421356237312151
10
38.00000762939446
20
351.02941453622202
10
38.000007629394496
20
365.02983878463402
42
0.41421356237310181
10
33.00000762939451
20
370.02983878463402
10
-49.173259369054989
20
370.02983878463408
42
0.41421356237309365
10
-56.673259369055025
20
362.52983878463402
10
-56.673259369055309
20
357.7651217579932
42
0.41421356237851636
10
-55.67325936906245
20
356.76512175799405
42
-0.41421356237486917
10
-54.673259369055422
20
355.76512175799309
10
-54.673259369055494
20
354.76512175799553
42
-0.41421356237311585
10
-55.673259369057142
20
353.765121757994
42
0.41421356237291035
10
-56.6732593690556
20
352.7651217579949
10
-56.673259369056126
20
345.00040473135402
42
-0.41421356237309503
10
-59.673259369056098
20
342.00040473135402
10
-74.99999237060571
20
342.00040473135397
42
0.41421356237309853
10
-77.999992370605725
20
339.00040473135397
10
-77.99999237000894
20
323.4004044333301
10
-77.999992370325955
20
320.00040473135408
42
0.4142135623457785
10
-74.99999237060571
20
317.00040473135402
10
-60.976393405323542
20
317.00040655110786
42
0.093198995059234901
10
-54.44789099842793
20
318.2279698270151
42
-0.051106670025497757
10
-43.065575590212354
20
321.37319059705771
42
0.15857189234806179
10
-40.954398890283379
20
322.08337493836984
42
-0.16112973134987488
10
-29.026114145178191
20
326.02983878462197
10
-5.6435383246114981
20
326.02983878462197
42
0.11794422755167364
0
LWPOLYLINE
5
101
100
AcDbEntity
8
0
100
AcDbPolyline
90
8
70
1
43
0.0
10
-43.101490144402703
20
322.97301144604495
10
-45.861490144402701
20
322.97301144604501
42
-0.41421356237306639
10
-47.861490144402694
20
324.97301144604489
10
-47.861490144402687
20
330.9730114460541
42
-0.41421356237315093
10
-45.861490144402701
20
332.9730114460541
10
-43.101490144402703
20
332.97301144605399
42
-0.41421356237307294
10
-41.101490144402675
20
330.9730114460541
10
-41.101490144402682
20
324.97301144604501
42
-0.41421356237305212
0
CIRCLE
5
102
100
AcDbEntity
8
0
100
AcDbCircle
10
-67.999992370605725
20
321.25040459634414
30
0
40
1.5250000000000061
210
0
220
-0
230
1
0
CIRCLE
5
103
100
AcDbEntity
8
0
100
AcDbCircle
10
-67.999992370605497
20
335.75040459634408
30
0
40
2.5499999999999989
210
0
220
-0
230
1
0
CIRCLE
5
104
100
AcDbEntity
8
0
100
AcDbCircle
10
-49.173259369057263
20
340.52983878463402
30
0
40
1.5249999999999999
210
0
220
-0
230
1
0
LWPOLYLINE
5
105
100
AcDbEntity
8
0
100
AcDbPolyline
90
4
70
1
43
0.0
10
-36.601490144399534
20
334.07941453623005
10
-28.601490144399602
20
334.07941453623016
42
-0.99999999999999989
10
-28.601490144399531
20
330.97941453623002
10
-36.601490144399534
20
330.97941453623002
42
-0.99999999999999989
0
LWPOLYLINE
5
106
100
AcDbEntity
8
0
100
AcDbPolyline
90
4
70
1
43
0.0
10
-10.601490144399524
20
334.07941453623005
10
-2.6014901443996008
20
334.07941453623005
42
-0.99999999999999989
10
-2.6014901443995253
20
330.97941453623014
10
-10.601490144399524
20
330.97941453623002
42
-0.99999999999999989
0
LWPOLYLINE
5
107
100
AcDbEntity
8
0
100
AcDbPolyline
90
4
70
1
43
0.0
10
-23.601490144399584
20
356.52941453622992
42
0.99999999999999989
10
-23.601490144399584
20
334.52941453622992
10
-15.601490144399445
20
334.52941453622992
42
0.99999999999999989
10
-15.601490144399508
20
356.52941453622992
0
CIRCLE
5
108
100
AcDbEntity
8
0
100
AcDbCircle
10
-53.905492416089693
20
350.99735480502778
30
0
40
1.3000000000000025
210
0
220
-0
230
1
0
CIRCLE
5
109
100
AcDbEntity
8
0
100
AcDbCircle
10
-49.173259369054954
20
362.52983878463402
30
0
40
1.5249999999999999
210
0
220
-0
230
1
0
LWPOLYLINE
5
110
100
AcDbEntity
8
0
100
AcDbPolyline
90
4
70
1
43
0.0
10
-28.599999360741876
20
360.0794145362301
10
-36.59999918192625
20
360.0794145362301
42
0.99999999999999989
10
-36.599999181926357
20
356.97941453622997
10
-28.599999360740185
20
356.97941453623002
42
0.99999999999999989
0
LWPOLYLINE
5
111
100
AcDbEntity
8
0
100
AcDbPolyline
90
4
70
1
43
0.0
10
-10.601490144399472
20
360.07941453622902
10
-2.601490144399655
20
360.07941453622914
42
-0.99999999999999989
10
-2.601490144399472
20
356.97941453622894
10
-10.601490144399508
20
356.979414536229
42
-0.99999999999999989
0
CIRCLE
5
112
100
AcDbEntity
8
0
100
AcDbCircle
10
12.249621459813699
20
358.02941453622202
30
0
40
2.5500000000000007
210
0
220
-0
230
1
0
CIRCLE
5
113
100
AcDbEntity
8
0
100
AcDbCircle
10
28.2496214598136
20
358.02941453622202
30
0
40
2.5499999999999989
210
0
220
-0
230
1
0
LWPOLYLINE
5
114
100
AcDbEntity
8
0
100
AcDbPolyline
90
4
70
1
43
0.0
10
21.749621459813653
20
355.02941453622202
10
18.749621459813657
20
355.02941453622202
10
18.749621459813657
20
361.02941453622208
10
21.749621459813653
20
361.02941453622208
0
LWPOLYLINE
5
115
100
AcDbEntity
8
0
100
AcDbPolyline
90
4
70
1
43
0.0
10
-64.999992370605611
20
327.00040459634414
10
-70.999992370605611
20
327.00040459634414
10
-70.999992370605611
20
330.00040459634414
10
-64.999992370605611
20
330.00040459634414
0
ENDSEC
0
SECTION
2
OBJECTS
0
DICTIONARY
5
C
100
AcDbDictionary
3
ACAD_GROUP
350
D
3
ACAD_MLINESTYLE
350
17
0
DICTIONARY
5
D
100
AcDbDictionary
0
DICTIONARY
5
1A
330
C
100
AcDbDictionary
0
DICTIONARY
5
17
100
AcDbDictionary
0
ENDSEC
0
EOF
