0
SECTION
2
HEADER
9
$INSUNITS
70
4
9
$ACADVER
1
AC1014
9
$HANDSEED
5
FFFF
0
ENDSEC
0
SECTION
2
TABLES
0
TABLE
2
VPORT
5
8
100
AcDbSymbolTable
0
ENDTAB
0
TABLE
2
LTYPE
5
5
100
AcDbSymbolTable
0
LTYPE
5
14
100
AcDbSymbolTableRecord
100
AcDbLinetypeTableRecord
2
BYBLOCK
70
0
0
LTYPE
5
15
100
AcDbSymbolTableRecord
100
AcDbLinetypeTableRecord
2
BYLAYER
70
0
0
ENDTAB
0
TABLE
2
LAYER
5
2
100
AcDbSymbolTable
70
2
0
LAYER
5
50
100
AcDbSymbolTableRecord
100
AcDbLayerTableRecord
2
0
70
0
6
CONTINUOUS
0
ENDTAB
0
TABLE
2
STYLE
5
3
100
AcDbSymbolTable
70
1
0
STYLE
5
11
100
AcDbSymbolTableRecord
100
AcDbTextStyleTableRecord
2
STANDARD
70
0
0
ENDTAB
0
TABLE
2
VIEW
5
6
100
AcDbSymbolTable
70
0
0
ENDTAB
0
TABLE
2
UCS
5
7
100
AcDbSymbolTable
70
0
0
ENDTAB
0
TABLE
2
APPID
5
9
100
AcDbSymbolTable
70
2
0
APPID
5
12
100
AcDbSymbolTableRecord
100
AcDbRegAppTableRecord
2
ACAD
70
0
0
ENDTAB
0
TABLE
2
DIMSTYLE
5
A
100
AcDbSymbolTable
70
1
0
ENDTAB
0
TABLE
2
BLOCK_RECORD
5
1
100
AcDbSymbolTable
70
1
0
BLOCK_RECORD
5
1F
100
AcDbSymbolTableRecord
100
AcDbBlockTableRecord
2
*MODEL_SPACE
0
BLOCK_RECORD
5
1B
100
AcDbSymbolTableRecord
100
AcDbBlockTableRecord
2
*PAPER_SPACE
0
ENDTAB
0
ENDSEC
0
SECTION
2
BLOCKS
0
BLOCK
5
20
100
AcDbEntity
100
AcDbBlockBegin
2
*MODEL_SPACE
0
ENDBLK
5
21
100
AcDbEntity
100
AcDbBlockEnd
0
BLOCK
5
1C
100
AcDbEntity
100
AcDbBlockBegin
2
*PAPER_SPACE
0
ENDBLK
5
1D
100
AcDbEntity
100
AcDbBlockEnd
0
ENDSEC
0
SECTION
2
ENTITIES
0
CIRCLE
5
100
100
AcDbEntity
8
0
100
AcDbCircle
10
-37.499994620940697
20
-4.9918053840471144
30
0
40
1.5249999999999999
210
0
220
0
230
1
0
CIRCLE
5
101
100
AcDbEntity
8
0
100
AcDbCircle
10
-11.499994624270713
20
-4.9922215100685277
30
0
40
1.5249999999999999
210
0
220
0
230
1
0
CIRCLE
5
102
100
AcDbEntity
8
0
100
AcDbCircle
10
-37.500410746962118
20
-30.991805380717103
30
0
40
1.5249999999999999
210
0
220
0
230
1
0
CIRCLE
5
103
100
AcDbEntity
8
0
100
AcDbCircle
10
-11.500410750292126
20
-30.992221506738513
30
0
40
1.5249999999999999
210
0
220
0
230
1
0
CIRCLE
5
104
100
AcDbEntity
8
0
100
AcDbCircle
10
-24.49980262848106
20
-17.991757370554229
30
0
40
11.125
210
0
220
0
230
1
0
LWPOLYLINE
5
105
100
AcDbEntity
8
0
100
AcDbPolyline
90
16
70
1
43
0.0
10
-56.999992370612134
20
-29.991820999601792
42
0.41421055450609784
10
-49.000074526714442
20
-37.991820999192562
10
-11.500410750292126
20
-37.992221506738517
42
0.41421981876005715
10
-4.500410750292124
20
-30.992221506738513
10
-4.4999946242707107
20
-4.9922215100685277
42
0.41421724556515305
10
-11.499882589957638
20
2.0078024963053935
10
-36.999881170982178
20
2.0082106199521683
42
-0.41421245946483193
10
-39.999833156298237
20
5.0082153274922812
10
-39.999805538027047
20
9.0083601296707894
42
0.41421558460241242
10
-47.999805537836039
20
17.008415364213565
10
-74.999992370605298
20
17.008415364214702
42
0.41421356237309259
10
-77.999992370605298
20
14.008415364214702
10
-77.999992370605398
20
-4.9915846357893692
42
0.41421356237310525
10
-74.999992370605398
20
-7.991584635789291
10
-58.999992370605305
20
-7.991584635790324
42
-0.41421356237291607
10
-56.999992370605305
20
-9.9915846357893692
0
CIRCLE
5
106
100
AcDbEntity
8
0
100
AcDbCircle
10
-67.977292277584397
20
-1.7641905159499811
30
0
40
2.5499999999999998
210
0
220
0
230
1
0
CIRCLE
5
107
100
AcDbEntity
8
0
100
AcDbCircle
10
-67.961852911741303
20
12.770396717904502
30
0
40
1.5249999999999999
210
0
220
0
230
1
0
LINE
5
108
100
AcDbEntity
8
0
100
AcDbLine
10
-42.799801197550202
20
1.5084153643114506
30
0
11
-42.799801197550238
21
10.6084153643205
31
0
0
LINE
5
109
100
AcDbEntity
8
0
100
AcDbLine
10
-47.799789255390202
20
10.6084153643205
30
0
11
-47.799789255390202
21
1.5084153643114502
31
0
0
ARC
5
110
100
AcDbEntity
8
0
100
AcDbCircle
10
-46.799789255390102
20
10.6084153643205
30
0
40
1.0000000000001097
210
0
220
0
230
1
100
AcDbArc
50
90.000000000011795
51
180
0
ARC
5
111
100
AcDbEntity
8
0
100
AcDbCircle
10
-43.799801197550238
20
10.608415364320496
30
0
40
0.99999999999999645
210
0
220
-0
230
1
100
AcDbArc
50
0
51
90.000000000003254
0
ARC
5
112
100
AcDbEntity
8
0
100
AcDbCircle
10
-43.799801197550252
20
1.5084153643114528
30
0
40
1.0000000000000526
210
0
220
0
230
1
100
AcDbArc
50
269.99999999999756
51
360
0
ARC
5
113
100
AcDbEntity
8
0
100
AcDbCircle
10
-46.799789255390259
20
1.508415364311523
30
0
40
0.99999999999994316
210
0
220
0
230
1
100
AcDbArc
50
180
51
269.99999999999716
0
CIRCLE
5
114
100
AcDbEntity
8
0
100
AcDbCircle
10
-49.000247474872303
20
-29.483757370554233
30
0
40
1.5249999999999999
210
0
220
0
230
1
0
LINE
5
115
100
AcDbEntity
8
0
100
AcDbLine
10
-46.799789255390309
20
11.60841536432061
30
0
11
-43.799789255390309
21
11.60841536432061
31
0
0
LINE
5
116
100
AcDbEntity
8
0
100
AcDbLine
10
-46.799789255390309
20
0.50841536431157397
30
0
11
-43.799789255390309
21
0.50841536431157397
31
0
0
ENDSEC
0
SECTION
2
OBJECTS
0
DICTIONARY
5
C
100
AcDbDictionary
3
ACAD_GROUP
350
D
3
ACAD_MLINESTYLE
350
17
0
DICTIONARY
5
D
100
AcDbDictionary
0
DICTIONARY
5
1A
330
C
100
AcDbDictionary
0
DICTIONARY
5
17
100
AcDbDictionary
0
ENDSEC
0
EOF
