0
SECTION
2
HEADER
9
$INSUNITS
70
4
9
$ACADVER
1
AC1014
9
$HANDSEED
5
FFFF
0
ENDSEC
0
SECTION
2
TABLES
0
TABLE
2
VPORT
5
8
100
AcDbSymbolTable
0
ENDTAB
0
TABLE
2
LTYPE
5
5
100
AcDbSymbolTable
0
LTYPE
5
14
100
AcDbSymbolTableRecord
100
AcDbLinetypeTableRecord
2
BYBLOCK
70
0
0
LTYPE
5
15
100
AcDbSymbolTableRecord
100
AcDbLinetypeTableRecord
2
BYLAYER
70
0
0
ENDTAB
0
TABLE
2
LAYER
5
2
100
AcDbSymbolTable
70
2
0
LAYER
5
50
100
AcDbSymbolTableRecord
100
AcDbLayerTableRecord
2
0
70
0
6
CONTINUOUS
0
ENDTAB
0
TABLE
2
STYLE
5
3
100
AcDbSymbolTable
70
1
0
STYLE
5
11
100
AcDbSymbolTableRecord
100
AcDbTextStyleTableRecord
2
STANDARD
70
0
0
ENDTAB
0
TABLE
2
VIEW
5
6
100
AcDbSymbolTable
70
0
0
ENDTAB
0
TABLE
2
UCS
5
7
100
AcDbSymbolTable
70
0
0
ENDTAB
0
TABLE
2
APPID
5
9
100
AcDbSymbolTable
70
2
0
APPID
5
12
100
AcDbSymbolTableRecord
100
AcDbRegAppTableRecord
2
ACAD
70
0
0
ENDTAB
0
TABLE
2
DIMSTYLE
5
A
100
AcDbSymbolTable
70
1
0
ENDTAB
0
TABLE
2
BLOCK_RECORD
5
1
100
AcDbSymbolTable
70
1
0
BLOCK_RECORD
5
1F
100
AcDbSymbolTableRecord
100
AcDbBlockTableRecord
2
*MODEL_SPACE
0
BLOCK_RECORD
5
1B
100
AcDbSymbolTableRecord
100
AcDbBlockTableRecord
2
*PAPER_SPACE
0
ENDTAB
0
ENDSEC
0
SECTION
2
BLOCKS
0
BLOCK
5
20
100
AcDbEntity
100
AcDbBlockBegin
2
*MODEL_SPACE
0
ENDBLK
5
21
100
AcDbEntity
100
AcDbBlockEnd
0
BLOCK
5
1C
100
AcDbEntity
100
AcDbBlockBegin
2
*PAPER_SPACE
0
ENDBLK
5
1D
100
AcDbEntity
100
AcDbBlockEnd
0
ENDSEC
0
SECTION
2
ENTITIES
0
LWPOLYLINE
5
100
100
AcDbEntity
8
0
100
AcDbPolyline
90
34
70
1
43
0.0
10
-49.173259369054989
20
370.02983878463408
42
0.41421356237309365
10
-56.673259369055025
20
362.52983878463402
10
-56.673259369055309
20
357.76512175799314
42
0.41421356237849555
10
-55.67325936906245
20
356.76512175799405
42
-0.41421356237486917
10
-54.673259369055422
20
355.76512175799309
10
-54.673259369055494
20
354.76512175799553
42
-0.41421356237311585
10
-55.673259369057142
20
353.765121757994
42
0.41421356237291035
10
-56.6732593690556
20
352.7651217579949
10
-56.673259369056119
20
345.00040473135402
42
-0.41421356237309681
10
-59.673259369056105
20
342.00040473135402
10
-74.99999237060571
20
342.00040473135397
42
0.41421356237309853
10
-77.999992370605739
20
339.00040473135397
10
-77.999992370008954
20
323.4004044333301
10
-77.999992370325955
20
320.00040473135408
42
0.41421356234577672
10
-74.999992370605725
20
317.00040473135402
10
-60.976393405323549
20
317.00040655110791
42
0.093198995059235207
10
-54.44789099842793
20
318.2279698270151
42
-0.051106670025497646
10
-43.065575590212376
20
321.37319059705794
42
0.1585718923480616
10
-40.954398890283414
20
322.08337493836984
42
-0.16112973134987521
10
-29.026114145178195
20
326.02983878462197
10
-5.6435383246114954
20
326.02983878462197
42
0.11794422755167351
10
1.1445047873604697
20
327.65364834376749
10
23.978865534761557
20
337.04465229110099
42
0.30403430423006705
10
24.598509855599939
20
337.96949257857182
10
24.598509855600483
20
340.02941453622208
10
21.398509855600484
20
340.02941453622208
10
21.398509855600484
20
346.02941453622208
10
24.598509855600483
20
346.02941453622122
10
24.598509855600589
20
347.02941453622293
42
-0.41421356237310675
10
25.598509855600714
20
348.02941453622287
10
35.000007629394496
20
348.02941453622202
42
0.41421356237312151
10
38.00000762939446
20
351.02941453622202
10
38.000007629394503
20
365.02983878463402
42
0.41421356237310181
10
33.00000762939451
20
370.02983878463402
0
CIRCLE
5
101
100
AcDbEntity
8
0
100
AcDbCircle
10
-67.999992370605497
20
335.75040459634408
30
0
40
2.5499999999999989
210
0
220
0
230
1
0
LWPOLYLINE
5
102
100
AcDbEntity
8
0
100
AcDbPolyline
90
8
70
1
43
0.0
10
-47.861490144402694
20
324.97301144604506
42
0.41421356237308593
10
-45.861490144402701
20
322.97301144604501
10
-43.101490159303836
20
322.97301144604501
42
0.41421356237309503
10
-41.101490159303879
20
324.97301144604501
10
-41.101490159303857
20
330.9730114460541
42
0.41421356237227297
10
-43.101490159298244
20
332.97301144605399
10
-45.861490144402701
20
332.97301144605404
42
0.41421356237309892
10
-47.861490144402687
20
330.9730114460541
0
CIRCLE
5
103
100
AcDbEntity
8
0
100
AcDbCircle
10
12.249621459813699
20
358.02941453622202
30
0
40
2.5500000000000007
210
0
220
0
230
1
0
LWPOLYLINE
5
104
100
AcDbEntity
8
0
100
AcDbPolyline
90
4
70
1
43
0.0
10
-21.10149014439898
20
358.27941453623004
10
-13.101490144400902
20
358.27941453622987
42
-0.99999999999999989
10
-13.101490144399513
20
336.17941453622973
10
-21.10149014439898
20
336.1794145362299
42
-0.99999999999999989
0
CIRCLE
5
105
100
AcDbEntity
8
0
100
AcDbCircle
10
28.2496214598136
20
358.02941453622202
30
0
40
2.5499999999999989
210
0
220
0
230
1
0
CIRCLE
5
106
100
AcDbEntity
8
0
100
AcDbCircle
10
-49.173259369054954
20
362.52983878463402
30
0
40
1.5249999999999999
210
0
220
0
230
1
0
CIRCLE
5
107
100
AcDbEntity
8
0
100
AcDbCircle
10
-53.905492416089693
20
350.99735480502778
30
0
40
1.3000000000000025
210
0
220
0
230
1
0
CIRCLE
5
108
100
AcDbEntity
8
0
100
AcDbCircle
10
-49.173259369057263
20
340.52983878463402
30
0
40
1.5249999999999999
210
0
220
0
230
1
0
CIRCLE
5
109
100
AcDbEntity
8
0
100
AcDbCircle
10
20.249621459813657
20
358.02941453622202
30
0
40
1.3000000000000127
210
0
220
0
230
1
0
CIRCLE
5
110
100
AcDbEntity
8
0
100
AcDbCircle
10
-67.999992370605725
20
321.25040459634414
30
0
40
1.5249999999999955
210
0
220
0
230
1
0
LWPOLYLINE
5
111
100
AcDbEntity
8
0
100
AcDbPolyline
90
4
70
1
43
0.0
10
-36.60149014439871
20
364.27941453622992
10
-28.601490144398518
20
364.27941453622992
42
-0.99999999999999989
10
-28.601490144398454
20
361.1794145362299
10
-36.60149014439871
20
361.1794145362299
42
-0.99999999999999989
0
LWPOLYLINE
5
112
100
AcDbEntity
8
0
100
AcDbPolyline
90
4
70
1
43
0.0
10
-5.601490144399528
20
333.27941453622998
10
2.3985098024017972
20
333.27941453621833
42
-0.99999999999999989
10
2.3985098023978191
20
330.1794145362183
10
-5.601490144399528
20
330.17941453622996
42
-0.99999999999999989
0
LWPOLYLINE
5
113
100
AcDbEntity
8
0
100
AcDbPolyline
90
4
70
1
43
0.0
10
-5.6014901443995635
20
364.27941453622907
10
2.398509855599916
20
364.27941453622907
42
-0.99999999999999989
10
2.3985098556008841
20
361.17941453622905
10
-5.6014901443995635
20
361.17941453622905
42
-0.99999999999999989
0
LWPOLYLINE
5
114
100
AcDbEntity
8
0
100
AcDbPolyline
90
4
70
1
43
0.0
10
-36.601490144399534
20
333.27941453622998
42
0.99999999999999989
10
-36.601490144399534
20
330.17941453622996
10
-28.601490144399531
20
330.17941453622996
42
0.99999999999999989
10
-28.601490144399531
20
333.27941453622998
0
ENDSEC
0
SECTION
2
OBJECTS
0
DICTIONARY
5
C
100
AcDbDictionary
3
ACAD_GROUP
350
D
3
ACAD_MLINESTYLE
350
17
0
DICTIONARY
5
D
100
AcDbDictionary
0
DICTIONARY
5
1A
330
C
100
AcDbDictionary
0
DICTIONARY
5
17
100
AcDbDictionary
0
ENDSEC
0
EOF
