0
SECTION
2
HEADER
9
$INSUNITS
70
4
9
$ACADVER
1
AC1014
9
$HANDSEED
5
FFFF
0
ENDSEC
0
SECTION
2
TABLES
0
TABLE
2
VPORT
5
8
100
AcDbSymbolTable
0
ENDTAB
0
TABLE
2
LTYPE
5
5
100
AcDbSymbolTable
0
LTYPE
5
14
100
AcDbSymbolTableRecord
100
AcDbLinetypeTableRecord
2
BYBLOCK
70
0
0
LTYPE
5
15
100
AcDbSymbolTableRecord
100
AcDbLinetypeTableRecord
2
BYLAYER
70
0
0
ENDTAB
0
TABLE
2
LAYER
5
2
100
AcDbSymbolTable
70
2
0
LAYER
5
50
100
AcDbSymbolTableRecord
100
AcDbLayerTableRecord
2
0
70
0
6
CONTINUOUS
0
ENDTAB
0
TABLE
2
STYLE
5
3
100
AcDbSymbolTable
70
1
0
STYLE
5
11
100
AcDbSymbolTableRecord
100
AcDbTextStyleTableRecord
2
STANDARD
70
0
0
ENDTAB
0
TABLE
2
VIEW
5
6
100
AcDbSymbolTable
70
0
0
ENDTAB
0
TABLE
2
UCS
5
7
100
AcDbSymbolTable
70
0
0
ENDTAB
0
TABLE
2
APPID
5
9
100
AcDbSymbolTable
70
2
0
APPID
5
12
100
AcDbSymbolTableRecord
100
AcDbRegAppTableRecord
2
ACAD
70
0
0
ENDTAB
0
TABLE
2
DIMSTYLE
5
A
100
AcDbSymbolTable
70
1
0
ENDTAB
0
TABLE
2
BLOCK_RECORD
5
1
100
AcDbSymbolTable
70
1
0
BLOCK_RECORD
5
1F
100
AcDbSymbolTableRecord
100
AcDbBlockTableRecord
2
*MODEL_SPACE
0
BLOCK_RECORD
5
1B
100
AcDbSymbolTableRecord
100
AcDbBlockTableRecord
2
*PAPER_SPACE
0
ENDTAB
0
ENDSEC
0
SECTION
2
BLOCKS
0
BLOCK
5
20
100
AcDbEntity
100
AcDbBlockBegin
2
*MODEL_SPACE
0
ENDBLK
5
21
100
AcDbEntity
100
AcDbBlockEnd
0
BLOCK
5
1C
100
AcDbEntity
100
AcDbBlockBegin
2
*PAPER_SPACE
0
ENDBLK
5
1D
100
AcDbEntity
100
AcDbBlockEnd
0
ENDSEC
0
SECTION
2
ENTITIES
0
LWPOLYLINE
5
100
100
AcDbEntity
8
0
100
AcDbPolyline
90
22
70
1
43
0.0
10
-6.4998129307370123
20
6.5078024953732774
10
-36.999881170982171
20
6.5082106199521679
42
-0.41421245946483198
10
-39.999833156298251
20
9.5082153274922803
10
-39.999833156298251
20
10.008414306997599
42
0.41421355131416587
10
-46.999832891995474
20
17.008414306997587
10
-74.999992370605327
20
17.008415364214706
42
0.41421356237309309
10
-77.999992370605327
20
14.008415364214706
10
-77.999992370605398
20
-4.9915846357893701
42
0.41421356237310497
10
-74.999992370605398
20
-7.9915846357892919
10
-58.999992370605305
20
-7.991584635790324
42
-0.4142135623729154
10
-56.999992370605305
20
-9.9915846357893674
10
-56.99999237060787
20
-17.491702817695582
42
0.41421108335851009
10
-56.000000834465034
20
-18.491702817695923
42
-0.41421604137570556
10
-54.999995186934704
20
-19.491705634014444
10
-54.999998003253232
20
-20.491705634014249
42
-0.41421251927220193
10
-55.999998748302453
20
-21.491702817695927
42
0.41421169438527111
10
-56.999992370609576
20
-22.491702817695614
10
-56.999992370612134
20
-30.491820999601789
42
0.41421080221452244
10
-49.000067760864965
20
-38.491820999252525
10
-6.5004107502921205
20
-38.492221506738524
42
0.41421981876005687
10
0.49958924970787583
20
-31.49222150673851
10
0.50000537572929105
20
-0.49222151006852677
42
0.41421433085057718
0
LWPOLYLINE
5
101
100
AcDbEntity
8
0
100
AcDbPolyline
90
8
70
1
43
0.0
10
-43.799801197550295
20
0.50841536431140033
42
0.41421356237310331
10
-42.799801197550202
20
1.5084153643114506
10
-42.799801197550238
20
10.6084153643205
42
0.41421356237310997
10
-43.799801197550295
20
11.608415364320502
10
-46.799789255390316
20
11.60841536432061
42
0.41421356237303519
10
-47.799789255390202
20
10.6084153643205
10
-47.799789255390202
20
1.5084153643114506
42
0.41421356237306384
10
-46.799789255390316
20
0.50841536431157852
0
CIRCLE
5
102
100
AcDbEntity
8
0
100
AcDbCircle
10
-37.500410746962118
20
-31.491805380717111
30
0
40
1.5249999999999999
210
0
220
0
230
1
0
CIRCLE
5
103
100
AcDbEntity
8
0
100
AcDbCircle
10
-37.500410746962118
20
-0.49180538071710078
30
0
40
1.5249999999999997
210
0
220
0
230
1
0
CIRCLE
5
104
100
AcDbEntity
8
0
100
AcDbCircle
10
-67.977292277584397
20
-1.7641905159499813
30
0
40
2.5499999999999998
210
0
220
0
230
1
0
CIRCLE
5
105
100
AcDbEntity
8
0
100
AcDbCircle
10
-6.5004110033848628
20
-31.491805380717111
30
0
40
1.5250000000000008
210
0
220
0
230
1
0
CIRCLE
5
106
100
AcDbEntity
8
0
100
AcDbCircle
10
-6.5004110033848628
20
-0.49180538071710522
30
0
40
1.5249999999999999
210
0
220
0
230
1
0
CIRCLE
5
107
100
AcDbEntity
8
0
100
AcDbCircle
10
-22.000373367986906
20
-15.992050824368018
30
0
40
11.125
210
0
220
0
230
1
0
CIRCLE
5
108
100
AcDbEntity
8
0
100
AcDbCircle
10
-49.000247474872296
20
-29.983757370554237
30
0
40
1.5249999999999999
210
0
220
0
230
1
0
CIRCLE
5
109
100
AcDbEntity
8
0
100
AcDbCircle
10
-67.961852911741289
20
12.770396717904502
30
0
40
1.5249999999999999
210
0
220
0
230
1
0
ENDSEC
0
SECTION
2
OBJECTS
0
DICTIONARY
5
C
100
AcDbDictionary
3
ACAD_GROUP
350
D
3
ACAD_MLINESTYLE
350
17
0
DICTIONARY
5
D
100
AcDbDictionary
0
DICTIONARY
5
1A
330
C
100
AcDbDictionary
0
DICTIONARY
5
17
100
AcDbDictionary
0
ENDSEC
0
EOF
