0
SECTION
2
HEADER
9
$INSUNITS
70
4
9
$ACADVER
1
AC1014
9
$HANDSEED
5
FFFF
0
ENDSEC
0
SECTION
2
TABLES
0
TABLE
2
VPORT
5
8
100
AcDbSymbolTable
0
ENDTAB
0
TABLE
2
LTYPE
5
5
100
AcDbSymbolTable
0
LTYPE
5
14
100
AcDbSymbolTableRecord
100
AcDbLinetypeTableRecord
2
BYBLOCK
70
0
0
LTYPE
5
15
100
AcDbSymbolTableRecord
100
AcDbLinetypeTableRecord
2
BYLAYER
70
0
0
ENDTAB
0
TABLE
2
LAYER
5
2
100
AcDbSymbolTable
70
2
0
LAYER
5
50
100
AcDbSymbolTableRecord
100
AcDbLayerTableRecord
2
0
70
0
6
CONTINUOUS
0
ENDTAB
0
TABLE
2
STYLE
5
3
100
AcDbSymbolTable
70
1
0
STYLE
5
11
100
AcDbSymbolTableRecord
100
AcDbTextStyleTableRecord
2
STANDARD
70
0
0
ENDTAB
0
TABLE
2
VIEW
5
6
100
AcDbSymbolTable
70
0
0
ENDTAB
0
TABLE
2
UCS
5
7
100
AcDbSymbolTable
70
0
0
ENDTAB
0
TABLE
2
APPID
5
9
100
AcDbSymbolTable
70
2
0
APPID
5
12
100
AcDbSymbolTableRecord
100
AcDbRegAppTableRecord
2
ACAD
70
0
0
ENDTAB
0
TABLE
2
DIMSTYLE
5
A
100
AcDbSymbolTable
70
1
0
ENDTAB
0
TABLE
2
BLOCK_RECORD
5
1
100
AcDbSymbolTable
70
1
0
BLOCK_RECORD
5
1F
100
AcDbSymbolTableRecord
100
AcDbBlockTableRecord
2
*MODEL_SPACE
0
BLOCK_RECORD
5
1B
100
AcDbSymbolTableRecord
100
AcDbBlockTableRecord
2
*PAPER_SPACE
0
ENDTAB
0
ENDSEC
0
SECTION
2
BLOCKS
0
BLOCK
5
20
100
AcDbEntity
100
AcDbBlockBegin
2
*MODEL_SPACE
0
ENDBLK
5
21
100
AcDbEntity
100
AcDbBlockEnd
0
BLOCK
5
1C
100
AcDbEntity
100
AcDbBlockBegin
2
*PAPER_SPACE
0
ENDBLK
5
1D
100
AcDbEntity
100
AcDbBlockEnd
0
ENDSEC
0
SECTION
2
ENTITIES
0
LWPOLYLINE
5
100
100
AcDbEntity
8
0
100
AcDbPolyline
90
4
70
1
43
0.0
10
-36.601490144399534
20
330.17941453623001
10
-28.601490144399534
20
330.17941453623001
42
0.99999999999999989
10
-28.601490144399534
20
333.27941453623004
10
-36.601490144399534
20
333.27941453623004
42
0.99999999999999989
0
LWPOLYLINE
5
101
100
AcDbEntity
8
0
100
AcDbPolyline
90
8
70
1
43
0.0
10
-45.861490144402701
20
332.9730114460541
42
0.41421356237311063
10
-47.861490144402694
20
330.9730114460541
10
-47.861490144402687
20
324.97301144604506
42
0.41421356237309243
10
-45.861490144402701
20
322.97301144604501
10
-43.101490159303843
20
322.97301144604501
42
0.41421356237308204
10
-41.101490159303829
20
324.97301144604501
10
-41.10149015930385
20
330.9730114460541
42
0.41421356237226387
10
-43.101490159298237
20
332.97301144605399
0
LWPOLYLINE
5
102
100
AcDbEntity
8
0
100
AcDbPolyline
90
34
70
1
43
0.0
10
-54.673259369055494
20
354.76512175799553
42
-0.41421356237316009
10
-55.673259369057142
20
353.765121757994
42
0.41421356237287649
10
-56.673259369055557
20
352.76512175799496
10
-56.673259369056126
20
345.00040473135402
42
-0.41421356237310025
10
-59.673259369056098
20
342.00040473135397
10
-74.99999237060571
20
342.00040473135397
42
0.41421356237311585
10
-77.999992370605739
20
339.00040473135397
10
-77.99999237000894
20
323.4004044333301
10
-77.999992370325955
20
320.00040473135408
42
0.41421356234579931
10
-74.999992370605753
20
317.00040473135397
10
-60.976393405323542
20
317.00040655110791
42
0.093198995059234513
10
-54.44789099842793
20
318.2279698270151
42
-0.05110667002549555
10
-43.065575590212376
20
321.37319059705794
42
0.15857189234807861
10
-40.954398890283407
20
322.08337493836984
42
-0.16112973134987038
10
-29.026114145178195
20
326.02983878462203
10
-5.6435383246114963
20
326.02983878462203
42
0.11794422755167717
10
1.1445047873604697
20
327.65364834376749
10
23.778865534761557
20
337.04465229110093
42
0.30403430423007638
10
24.398509855599933
20
337.96949257857187
10
24.398509855600491
20
340.02941453622208
10
21.398509855600484
20
340.02941453622208
10
21.398509855600484
20
346.02941453622208
10
24.398509855600491
20
346.02941453622117
10
24.398509855600594
20
347.02941453622293
42
-0.41421356237311452
10
25.398509855600718
20
348.02941453622287
10
35.000007629394496
20
348.02941453622202
42
0.41421356237314017
10
38.000007629394432
20
351.02941453622208
10
38.000007629394496
20
365.02983878463402
42
0.41421356237310386
10
33.00000762939451
20
370.02983878463402
10
-49.173259369054989
20
370.02983878463408
42
0.41421356237309265
10
-56.673259369054996
20
362.52983878463402
10
-56.673259369055309
20
357.7651217579932
42
0.41421356237857621
10
-55.67325936906245
20
356.76512175799411
42
-0.41421356237487178
10
-54.673259369055422
20
355.76512175799309
0
LWPOLYLINE
5
103
100
AcDbEntity
8
0
100
AcDbPolyline
90
4
70
1
43
0.0
10
-21.10149014439898
20
358.27941453623009
10
-13.101490144400902
20
358.27941453622992
42
-0.99999999999999989
10
-13.101490144399513
20
336.17941453622973
10
-21.10149014439898
20
336.17941453622984
42
-0.99999999999999989
0
LWPOLYLINE
5
104
100
AcDbEntity
8
0
100
AcDbPolyline
90
4
70
1
43
0.0
10
2.3985098024017972
20
333.27941453621838
42
-0.99999999999999989
10
2.3985098023979261
20
330.17941453621825
10
-5.6014901443995289
20
330.17941453623001
42
-0.99999999999999989
10
-5.6014901443995289
20
333.27941453623004
0
LWPOLYLINE
5
105
100
AcDbEntity
8
0
100
AcDbPolyline
90
4
70
1
43
0.0
10
-5.6014901443995644
20
361.1794145362291
42
-0.99999999999999989
10
-5.6014901443994578
20
364.27941453622901
10
2.398509855599916
20
364.27941453622907
42
-0.99999999999999989
10
2.3985098556008841
20
361.1794145362291
0
CIRCLE
5
106
100
AcDbEntity
8
0
100
AcDbCircle
10
-49.173259369054954
20
362.52983878463402
30
0
40
1.5249999999999999
210
0
220
0
230
1
0
LWPOLYLINE
5
107
100
AcDbEntity
8
0
100
AcDbPolyline
90
4
70
1
43
0.0
10
-28.601490144398451
20
361.17941453622984
10
-36.60149014439871
20
361.17941453622984
42
-0.99999999999999989
10
-36.601490144398817
20
364.27941453622998
10
-28.601490144398518
20
364.27941453622992
42
-0.99999999999999989
0
CIRCLE
5
108
100
AcDbEntity
8
0
100
AcDbCircle
10
-67.999992370605497
20
335.75040459634408
30
0
40
2.5499999999999989
210
0
220
0
230
1
0
CIRCLE
5
109
100
AcDbEntity
8
0
100
AcDbCircle
10
-49.173259369057263
20
340.52983878463402
30
0
40
1.5249999999999999
210
0
220
0
230
1
0
CIRCLE
5
110
100
AcDbEntity
8
0
100
AcDbCircle
10
-67.999992370605725
20
321.25040459634414
30
0
40
1.5249999999999959
210
0
220
0
230
1
0
CIRCLE
5
111
100
AcDbEntity
8
0
100
AcDbCircle
10
28.2496214598136
20
358.02941453622202
30
0
40
2.5499999999999989
210
0
220
0
230
1
0
CIRCLE
5
112
100
AcDbEntity
8
0
100
AcDbCircle
10
12.249621459813699
20
358.02941453622202
30
0
40
2.5500000000000007
210
0
220
0
230
1
0
ENDSEC
0
SECTION
2
OBJECTS
0
DICTIONARY
5
C
100
AcDbDictionary
3
ACAD_GROUP
350
D
3
ACAD_MLINESTYLE
350
17
0
DICTIONARY
5
D
100
AcDbDictionary
0
DICTIONARY
5
1A
330
C
100
AcDbDictionary
0
DICTIONARY
5
17
100
AcDbDictionary
0
ENDSEC
0
EOF
